<svg width="217" height="217" viewBox="0 -29 217 217" fill="none" xmlns="http://www.w3.org/2000/svg">
<path d="M134.619 120.497C134.695 119.603 135.984 119.391 136.386 120.192C143.6 134.563 158.083 144.653 175.011 145.636C175.777 145.68 176.273 146.478 175.905 147.151C171.723 154.788 163.31 159.647 154.079 158.855C141.607 157.785 132.362 146.807 133.432 134.335L134.619 120.497Z" fill="#ffffff"/>
<path d="M79.1548 121.88C79.5788 121.116 80.803 121.347 80.8794 122.217L81.9361 134.295L81.979 134.879C82.7374 147.107 73.6076 157.776 61.3326 158.851C52.1083 159.657 43.6916 154.82 39.4937 147.199C39.1189 146.518 39.6317 145.712 40.4087 145.684C57.097 145.078 71.5263 135.627 79.1548 121.88Z" fill="#ffffff"/>
<path d="M113.708 40.4726C114.068 40.4726 114.428 40.4821 114.785 40.499L117.972 40.8779C128.351 42.8706 136.193 51.9979 136.194 62.9579V83.9452C136.194 90.9837 132.959 97.2657 127.896 101.389C126.615 102.431 125.686 103.884 125.534 105.528L121.748 146.6C121.012 153.591 115.116 158.898 108.085 158.898C101.056 158.898 95.1604 153.591 94.4243 146.6L90.6372 105.528C90.4854 103.884 89.5564 102.431 88.2759 101.389C83.2134 97.2656 79.9791 90.9833 79.979 83.9452V62.9579C79.9794 52.1931 87.5445 43.1965 97.648 40.9911L100.835 40.5312C101.373 40.4927 101.917 40.4726 102.464 40.4726H113.708Z" fill="#ffffff"/>
<path d="M67.646 56.7997C68.4246 56.0212 69.8443 56.8178 69.6783 57.9062C69.4267 59.5533 69.2965 61.2405 69.2964 62.9579V83.9452C69.2964 88.9146 70.3932 93.626 72.3511 97.8534C72.8689 98.9716 73.2021 100.18 73.1363 101.41C72.1331 120.148 56.6221 135.032 37.6343 135.032H7.50931C0.832137 135.032 -2.51116 126.959 2.21048 122.237L67.646 56.7997Z" fill="#ffffff"/>
<path d="M146.755 57.9062C146.589 56.818 148.009 56.0216 148.788 56.7997L214.224 122.237C218.945 126.959 215.602 135.032 208.924 135.032H178.799C159.812 135.032 144.301 120.148 143.297 101.41C143.232 100.18 143.565 98.9715 144.083 97.8534C146.04 93.6259 147.137 88.9147 147.137 83.9452V62.9579C147.137 61.2405 147.007 59.5533 146.755 57.9062Z" fill="#ffffff"/>
<path d="M59.0718 0.626885C59.0373 0.0908856 59.9693 -0.21688 60.3306 0.180596C62.3379 2.3892 66.9515 5.78021 76.356 5.78021C94.3314 5.78033 100.999 14.0997 101 25.5312V29.5761C100.999 29.926 100.284 30.0695 100.12 29.7607C98.4153 26.5657 93.8177 20.7831 82.8638 20.7831C74.2455 20.7831 60.1996 18.1158 59.0718 0.626885Z" fill="#ffffff"/>
<path d="M155.668 0.180596C156.03 -0.216886 156.962 0.0908778 156.927 0.626885C155.799 18.116 141.754 20.7831 133.135 20.7831C122.181 20.7832 117.584 26.5658 115.879 29.7607C115.715 30.0695 115 29.926 115 29.5761V25.5312C115 14.0996 121.668 5.78021 139.644 5.78021C149.048 5.78017 153.661 2.3892 155.668 0.180596Z" fill="#ffffff"/>
</svg>
